<?xml version="1.0" encoding="utf-8"?>
<!-- Generator: Adobe Illustrator 27.9.0, SVG Export Plug-In . SVG Version: 6.00 Build 0)  -->
<svg version="1.1" id="Layer_1" xmlns="http://www.w3.org/2000/svg" xmlns:xlink="http://www.w3.org/1999/xlink" x="0px" y="0px"
	 viewBox="0 0 77 77" style="enable-background:new 0 0 77 77;" xml:space="preserve">
<style type="text/css">
	.st0{fill:#F58122;}
	.st1{fill:#FFFFFF;}
</style>
<path class="st0" d="M8,0h61c4.42,0,8,3.58,8,8v61c0,4.42-3.58,8-8,8H8c-4.42,0-8-3.58-8-8V8C0,3.58,3.58,0,8,0z"/>
<path class="st1" d="M43.75,28.38h3c1.64,0,3,1.36,3,3v0.98c1.36,1.22,2.25,3.05,2.25,5.02v8.25c0,1.69-1.36,3-3,3H38.83
	c0.7-0.8,1.17-1.83,1.17-3v-8.25c0-2.77-1.41-5.25-3.52-6.75h4.36C41.17,29.36,42.34,28.38,43.75,28.38z M43.75,38.12
	c0.38,0,0.75-0.33,0.75-0.75v-3.75h2.25c0.38,0,0.75-0.33,0.75-0.75v-1.5c0-0.38-0.38-0.75-0.75-0.75h-3C43.33,30.62,43,31,43,31.38
	v1.5v4.5C43,37.8,43.33,38.12,43.75,38.12z M25,37.38c0-3.7,3-6.75,6.75-6.75c3.7,0,6.75,3.05,6.75,6.75v8.25c0,1.69-1.36,3-3,3H28
	c-1.69,0-3-1.31-3-3V37.38z M28,37.38c0,0.42,0.33,0.75,0.75,0.75h6c0.38,0,0.75-0.33,0.75-0.75c0-0.38-0.38-0.75-0.75-0.75h-6
	C28.33,36.62,28,37,28,37.38z"/>
</svg>
