<?xml version="1.0" encoding="utf-8"?>
<!-- Generator: Adobe Illustrator 27.9.0, SVG Export Plug-In . SVG Version: 6.00 Build 0)  -->
<svg version="1.1" id="Layer_1" xmlns="http://www.w3.org/2000/svg" xmlns:xlink="http://www.w3.org/1999/xlink" x="0px" y="0px"
	 viewBox="0 0 77 77" style="enable-background:new 0 0 77 77;" xml:space="preserve">
<style type="text/css">
	.st0{fill:#3D96D2;}
	.st1{fill:#FFFFFF;}
</style>
<path class="st0" d="M8,0h61c4.42,0,8,3.58,8,8v61c0,4.42-3.58,8-8,8H8c-4.42,0-8-3.58-8-8V8C0,3.58,3.58,0,8,0z"/>
<path class="st1" d="M39.36,28.82c-2.06-0.42-4.03,0.8-4.5,2.81c-0.38,1.64,0.33,3.23,1.64,4.03c0.28,0.19,0.42,0.42,0.52,0.7
	c0.05,0.33,0,0.61-0.14,0.84l-3.89,6.23c0.19,0.33,0.28,0.66,0.28,1.03c0,1.27-1.03,2.25-2.25,2.25c-1.27,0-2.25-0.98-2.25-2.25
	c0-1.22,0.98-2.25,2.25-2.25h0.05l3.37-5.34c-1.55-1.41-2.3-3.56-1.78-5.72c0.75-3.23,3.94-5.25,7.17-4.5
	c3.09,0.7,5.06,3.66,4.59,6.75c-0.09,0.61-0.66,1.03-1.27,0.94c-0.61-0.09-1.03-0.66-0.94-1.27C42.5,31.16,41.28,29.29,39.36,28.82z
	 M38.56,34.72h-0.05c-1.27,0-2.25-0.98-2.25-2.25c0-1.22,0.98-2.25,2.25-2.25c1.22,0,2.25,1.03,2.25,2.25
	c0,0.42-0.09,0.75-0.28,1.08l3.33,5.34c2.16-0.84,4.69-0.38,6.42,1.36c2.34,2.34,2.34,6.14,0,8.48c-2.02,2.02-5.11,2.3-7.41,0.84
	c-0.56-0.33-0.7-1.03-0.38-1.55c0.33-0.52,1.03-0.7,1.55-0.38c1.45,0.94,3.38,0.75,4.64-0.52c1.45-1.45,1.45-3.84,0-5.3
	c-1.27-1.27-3.19-1.45-4.64-0.52c-0.23,0.14-0.56,0.19-0.84,0.14c-0.28-0.09-0.56-0.28-0.7-0.52L38.56,34.72z M46.02,46.72
	c-0.84,0-1.59-0.42-1.97-1.12h-7.17c-0.42,2.3-2.16,4.17-4.55,4.73c-3.23,0.75-6.42-1.27-7.17-4.5c-0.66-2.91,0.89-5.77,3.52-6.89
	c0.56-0.23,1.27,0.05,1.5,0.61c0.23,0.56-0.05,1.22-0.61,1.5c-1.69,0.66-2.62,2.48-2.2,4.27c0.47,2.02,2.48,3.28,4.5,2.81
	c1.73-0.38,2.91-1.92,2.91-3.66c0-0.28,0.09-0.56,0.33-0.8c0.19-0.19,0.47-0.33,0.8-0.33h8.16c0.38-0.66,1.12-1.12,1.97-1.12
	c1.22,0,2.25,1.03,2.25,2.25C48.27,45.74,47.24,46.72,46.02,46.72z"/>
</svg>
