<?xml version="1.0" encoding="utf-8"?>
<!-- Generator: Adobe Illustrator 27.9.0, SVG Export Plug-In . SVG Version: 6.00 Build 0)  -->
<svg version="1.1" id="Layer_1" xmlns="http://www.w3.org/2000/svg" xmlns:xlink="http://www.w3.org/1999/xlink" x="0px" y="0px"
	 viewBox="0 0 77 77" style="enable-background:new 0 0 77 77;" xml:space="preserve">
<style type="text/css">
	.st0{fill:#03B4AC;}
	.st1{fill:#FFFFFF;}
</style>
<g>
	<path class="st0" d="M8,0h61c4.42,0,8,3.58,8,8v61c0,4.42-3.58,8-8,8H8c-4.42,0-8-3.58-8-8V8C0,3.58,3.58,0,8,0z"/>
	<path class="st1" d="M41.9,26.57c0.8,0.23,1.27,1.03,1.03,1.83l-6,21c-0.23,0.8-1.03,1.27-1.83,1.03c-0.8-0.23-1.27-1.03-1.03-1.83
		l6-21C40.3,26.8,41.1,26.34,41.9,26.57z M45.7,32.2c0.56-0.61,1.55-0.61,2.11,0l5.25,5.25c0.61,0.56,0.61,1.55,0,2.11L47.8,44.8
		c-0.56,0.61-1.55,0.61-2.11,0c-0.61-0.56-0.61-1.55,0-2.11l4.17-4.22L45.7,34.3C45.09,33.74,45.09,32.76,45.7,32.2z M31.3,32.2
		c0.61,0.56,0.61,1.55,0,2.11l-4.17,4.17l4.17,4.22c0.61,0.56,0.61,1.55,0,2.11c-0.56,0.61-1.55,0.61-2.11,0l-5.25-5.25
		c-0.61-0.56-0.61-1.55,0-2.11l5.25-5.25C29.76,31.59,30.74,31.59,31.3,32.2z"/>
</g>
</svg>
