<?xml version="1.0" encoding="UTF-8"?>
<svg xmlns="http://www.w3.org/2000/svg" xmlns:xlink="http://www.w3.org/1999/xlink" width="95" height="95" viewBox="0 0 95 95">
  <defs>
    <linearGradient id="linear-gradient" x1="0.5" y1="0.5" x2="0.5" y2="1" gradientUnits="objectBoundingBox">
      <stop offset="0" stop-color="#222" stop-opacity="0"></stop>
      <stop offset="1" stop-color="#222" stop-opacity="0.2"></stop>
    </linearGradient>
  </defs>
  <g id="Icon_-_Segment" data-name="Icon - Segment" transform="translate(0 0.41)">
    <rect id="box_-_purple" data-name="box - purple" width="94.93" height="94.355" rx="12" transform="translate(0 0.235)" fill="#6436c8"></rect>
    <rect id="box_-_shadow" data-name="box - shadow" width="94.93" height="94.355" rx="12" transform="translate(0.07 -0.41)" opacity="0.5" fill="url(#linear-gradient)"></rect>
    <path id="Union_26" data-name="Union 26" d="M0,25.4A25.353,25.353,0,0,1,6.573,8.388a.962.962,0,0,1,.743-.327.99.99,0,0,1,.738.338l8.789,10.117a.978.978,0,0,1,.071,1.183,10.066,10.066,0,0,0-1.168,9.067,10.466,10.466,0,0,0,13.227,6.445,11.388,11.388,0,0,0,2.678-1.33.993.993,0,0,1,1.168.052l10.466,8.379a.979.979,0,0,1,.15,1.381.936.936,0,0,1-.087.095,25.378,25.378,0,0,1-9.5,5.714A25.751,25.751,0,0,1,25.6,50.863l0,0A25.531,25.531,0,0,1,0,25.4ZM45.871,39.11l-10.4-8.441a.98.98,0,0,1-.278-1.161,12.485,12.485,0,0,0,.537-1.5.986.986,0,0,1,.93-.7l13.426-.232a1.016,1.016,0,0,1,.747.321.983.983,0,0,1,.252.769,24.968,24.968,0,0,1-3.751,10.706,1,1,0,0,1-.84.459h0A.988.988,0,0,1,45.871,39.11ZM36.554,23.147a.993.993,0,0,1-.883-.543,1.722,1.722,0,0,1-.144-.449,9.144,9.144,0,0,0-1.074-2.221.981.981,0,0,1,.091-1.2l9.008-9.883a1.051,1.051,0,0,1,.748-.323.989.989,0,0,1,.738.347,24.445,24.445,0,0,1,4.783,8.37,25.134,25.134,0,0,1,1.139,4.536A.978.978,0,0,1,50,22.915l-13.428.232ZM30.74,16.268a1,1,0,0,1-.442-.1,10.683,10.683,0,0,0-8.088-.582c-.134.061-.341.137-.533.214s-.357.136-.548.218a.988.988,0,0,1-1.136-.259L11.213,5.7a.98.98,0,0,1,.1-1.387.811.811,0,0,1,.1-.074,25.852,25.852,0,0,1,28.908.36.976.976,0,0,1,.248,1.366.728.728,0,0,1-.078.1L31.48,15.948a.984.984,0,0,1-.732.323Z" transform="translate(21.991 21.334)" fill="#fff" stroke="rgba(0,0,0,0)" stroke-miterlimit="10" stroke-width="1"></path>
  </g>
</svg>
